# xmcd
#
# Track frame offsets:
#	150
#	16735
#	29565
#	44806
#	58742
#	73745
#	88820
#	100752
#	114778
#	133173
#	146801
#	162402
#	174930
#	188764
#	199638
#
# Disc length: 2865 seconds
#
# Revision: 1
# Processed by: cddbd v1.5.2PL0 Copyright (c) Steve Scherf et al.
# Submitted via: audiograbber 1.83.01
#
DISCID=d50b2f0f
DTITLE=Zillertaler Haderlumpen - 20 Jahre - CD 1
DYEAR=2007
DGENRE=Folklore
TTITLE0=Ciao Bella
TTITLE1=20 Jahre Haderlumpen
TTITLE2=Mensch frei i mi auf dei Lachn
TTITLE3=Alles hat 2 Seiten
TTITLE4=A Musi bleibt a Musi
TTITLE5=Gar Nix
TTITLE6=Almrausch
TTITLE7=Ich ruf Dich zurück
TTITLE8=Ich war noch niemals in New York
TTITLE9=Wenn's Hoamweh nit aufhört
TTITLE10=Die Lumpenparty geht weiter
TTITLE11=Uns're Fans sind eine Macht
TTITLE12=Die Melodie für die Welt
TTITLE13=I bin a Haderlump
TTITLE14=Ein großes Dankeschön für eure Treue
EXTD=
EXTT0=
EXTT1=
EXTT2=
EXTT3=
EXTT4=
EXTT5=
EXTT6=
EXTT7=
EXTT8=
EXTT9=
EXTT10=
EXTT11=
EXTT12=
EXTT13=
EXTT14=
PLAYORDER=
